<svg width="411" height="305" viewBox="0 0 411 305" fill="none" xmlns="http://www.w3.org/2000/svg">
<path fill-rule="evenodd" clip-rule="evenodd" d="M295.547 -244.306C372.998 -245.653 459.435 -246.514 521.29 -213.29C582.8 -180.251 604.155 -124.162 613.917 -73.3005C622.305 -29.5936 600.225 12.2095 571.972 50.7865C548.681 82.5884 489.838 95.3829 466.977 127.332C426.924 183.306 482.536 287.63 391.145 303.492C302.869 318.813 276.983 199.255 189.823 175.435C105.472 152.383 -12.6061 222.327 -73.1848 176.595C-131.74 132.391 -23.3317 70.748 -24.5377 13.6101C-25.5816 -35.8474 -105.228 -83.504 -79.6358 -129.039C-54.2404 -174.223 32.8518 -185.662 98.8595 -205.942C161.75 -225.264 224.864 -243.076 295.547 -244.306Z" fill="#9BFFEB"/>
</svg>
