<svg width="411" height="222" viewBox="0 0 411 222" fill="none" xmlns="http://www.w3.org/2000/svg">
<path fill-rule="evenodd" clip-rule="evenodd" d="M245.678 -438.682C321.082 -455.714 405.371 -473.933 472.895 -445.406C540.042 -417.038 572.854 -352.387 593.224 -291.854C610.728 -239.837 598.051 -184.109 578.654 -131.118C562.664 -87.433 507.884 -60.0358 492.345 -16.2558C465.121 60.4463 541.683 177.541 455.747 215.168C372.74 251.512 321.985 109.805 231.734 97.8523C144.392 86.2852 43.8911 195.637 -25.0484 151.494C-91.6851 108.825 1.13332 11.59 -12.2117 -58.3499C-23.763 -118.889 -111.747 -161.61 -96.4319 -222.619C-81.2349 -283.158 1.44191 -314.499 61.631 -352.512C118.978 -388.73 176.864 -423.139 245.678 -438.682Z" fill="url(#paint0_linear_79_12)"/>
<defs>
<linearGradient id="paint0_linear_79_12" x1="31.2847" y1="3.30555" x2="356.064" y2="-35.3739" gradientUnits="userSpaceOnUse">
<stop stop-color="#5BE6CA"/>
<stop offset="1" stop-color="#5CE5C9"/>
</linearGradient>
</defs>
</svg>
