<svg width="411" height="494" viewBox="0 0 411 494" fill="none" xmlns="http://www.w3.org/2000/svg">
<g clip-path="url(#clip0_25_19)">
<rect width="598.946" height="470.971" transform="translate(-0.0992432 -0.000427246) rotate(15.8948)" fill="#4EFFDB" fill-opacity="0.13"/>
<path d="M-28.0732 6.17429L601.064 193.166" stroke="#4EFFDB" stroke-opacity="0.13" stroke-width="105.885"/>
<path d="M209.62 343.913L324.387 426.47" stroke="#4EFFDB" stroke-opacity="0.13" stroke-width="105.885"/>
<path d="M15.2745 325.998L-106.097 334.78L-154.545 336.585" stroke="#4EFFDB" stroke-opacity="0.13" stroke-width="105.885"/>
<path d="M14.9356 326.286L-136.383 339.144" stroke="white" stroke-width="35.2951"/>
<path d="M-142.239 456.287L201.128 548.838L245.31 536.289L275.973 489.535L427.17 289.818" stroke="#4EFFDB" stroke-opacity="0.13" stroke-width="105.885"/>
<path d="M170.182 41.4954L-74.6497 218.929L39.2957 353.564M235.647 585.566L80.4987 402.248M436.409 542.137L36.8242 555.847M80.4987 402.248L39.2957 353.564M80.4987 402.248L229.48 334.756M378.461 267.264L229.48 334.756M39.2957 353.564L275.745 215.497M88.7249 235.941L229.48 334.756" stroke="white" stroke-width="17.6475"/>
<path d="M155.846 152.766L86.3254 239.177M15.1481 327.345L86.3254 239.177M5.83722 165.536L86.3254 239.177" stroke="white" stroke-width="35.2951"/>
<path d="M238.912 548.378L424.435 289.039" stroke="white" stroke-width="35.2951"/>
<path d="M210.409 549.637L-214.06 436.374" stroke="white" stroke-width="35.2951"/>
<path d="M-72.6737 336.997L-23.9894 420.333M24.6949 503.67L-23.9894 420.333M-23.9894 420.333L112.523 443.452" stroke="white" stroke-width="17.6475"/>
<path d="M210.1 346.74L326.679 424.741" stroke="white" stroke-width="35.2951"/>
<path d="M443.174 146.514L420.985 295.742" stroke="white" stroke-width="35.2951"/>
<path d="M150.003 157.942L243.781 84.0482" stroke="white" stroke-width="17.6475"/>
<path d="M-37.5019 3.18199L570.512 184.927L610.215 196.232" stroke="white" stroke-width="35.2951"/>
<path d="M357.025 88.0144L289.582 217.9L-46.2744 52.9425L499.383 320.987" stroke="white" stroke-width="35.2951"/>
</g>
<defs>
<clipPath id="clip0_25_19">
<rect width="598.946" height="470.971" fill="white" transform="translate(-0.0992432 -0.000427246) rotate(15.8948)"/>
</clipPath>
</defs>
</svg>
