<svg width="161" height="209" viewBox="0 0 161 209" fill="none" xmlns="http://www.w3.org/2000/svg">
<g filter="url(#filter0_d_658_118)">
<path d="M81.0244 116.195L116.078 62.4351L80.5026 9L45.1111 62.1531L81.0244 116.195Z" fill="white"/>
<path d="M127.217 74.2251L89.2449 131.933V197.003C102.704 195.32 115.392 189.79 125.787 181.075C136.182 172.361 143.843 160.832 147.851 147.872C151.86 134.912 152.045 121.07 148.385 108.007C144.725 94.9444 137.375 83.2148 127.217 74.2251Z" fill="white"/>
<path d="M71.1543 132.173L33.0837 74.8455C23.1434 83.8813 15.9909 95.5693 12.468 108.534C8.94505 121.498 9.19838 135.199 13.1982 148.024C17.1979 160.85 24.7777 172.265 35.0452 180.927C45.3127 189.589 57.8406 195.137 71.1543 196.918V132.173Z" fill="white"/>
</g>
<defs>
<filter id="filter0_d_658_118" x="0" y="0" width="161" height="208.003" filterUnits="userSpaceOnUse" color-interpolation-filters="sRGB">
<feFlood flood-opacity="0" result="BackgroundImageFix"/>
<feColorMatrix in="SourceAlpha" type="matrix" values="0 0 0 0 0 0 0 0 0 0 0 0 0 0 0 0 0 0 127 0" result="hardAlpha"/>
<feOffset dy="1"/>
<feGaussianBlur stdDeviation="5"/>
<feComposite in2="hardAlpha" operator="out"/>
<feColorMatrix type="matrix" values="0 0 0 0 0.65 0 0 0 0 0.65 0 0 0 0 0.65 0 0 0 0.25 0"/>
<feBlend mode="normal" in2="BackgroundImageFix" result="effect1_dropShadow_658_118"/>
<feBlend mode="normal" in="SourceGraphic" in2="effect1_dropShadow_658_118" result="shape"/>
</filter>
</defs>
</svg>
