<svg width="76" height="42" viewBox="0 0 76 42" fill="none" xmlns="http://www.w3.org/2000/svg">
<g filter="url(#filter0_d_701_2)">
<path d="M20.0595 21.1639L24.0371 15.0636L20.0003 9L15.9842 15.0316L20.0595 21.1639Z" fill="white"/>
<path d="M25.3012 16.4014L20.9923 22.9498V30.3336C22.5196 30.1427 23.9593 29.5151 25.1389 28.5262C26.3185 27.5373 27.1878 26.2291 27.6427 24.7585C28.0975 23.2878 28.1185 21.7171 27.7032 20.2348C27.2879 18.7525 26.4539 17.4215 25.3012 16.4014V16.4014Z" fill="white"/>
<path d="M18.9395 22.9772L14.6194 16.4719C13.4915 17.4973 12.6798 18.8236 12.2801 20.2947C11.8803 21.7658 11.909 23.3206 12.3629 24.7759C12.8168 26.2312 13.6769 27.5266 14.842 28.5096C16.0071 29.4925 17.4287 30.1221 18.9395 30.3242V22.9772Z" fill="white"/>
</g>
<path d="M4.39844 27H2.02344L2.03906 25.7734H4.39844C5.21094 25.7734 5.88802 25.6042 6.42969 25.2656C6.97135 24.9219 7.3776 24.4427 7.64844 23.8281C7.92448 23.2083 8.0625 22.4844 8.0625 21.6562V20.9609C8.0625 20.3099 7.98438 19.7318 7.82812 19.2266C7.67188 18.7161 7.44271 18.2865 7.14062 17.9375C6.83854 17.5833 6.46875 17.3151 6.03125 17.1328C5.59896 16.9505 5.10156 16.8594 4.53906 16.8594H1.97656V15.625H4.53906C5.28385 15.625 5.96354 15.75 6.57812 16C7.19271 16.2448 7.72135 16.6016 8.16406 17.0703C8.61198 17.5339 8.95573 18.0964 9.19531 18.7578C9.4349 19.4141 9.55469 20.1536 9.55469 20.9766V21.6562C9.55469 22.4792 9.4349 23.2214 9.19531 23.8828C8.95573 24.5391 8.60938 25.099 8.15625 25.5625C7.70833 26.026 7.16667 26.3828 6.53125 26.6328C5.90104 26.8776 5.1901 27 4.39844 27ZM2.82812 15.625V27H1.32031V15.625H2.82812Z" fill="white"/>
<path d="M30.7969 15.625H32.2578L35.9844 24.8984L39.7031 15.625H41.1719L36.5469 27H35.4062L30.7969 15.625ZM30.3203 15.625H31.6094L31.8203 22.5625V27H30.3203V15.625ZM40.3516 15.625H41.6406V27H40.1406V22.5625L40.3516 15.625ZM53.0469 20.9531V21.6719C53.0469 22.526 52.9401 23.2917 52.7266 23.9688C52.513 24.6458 52.2057 25.2214 51.8047 25.6953C51.4036 26.1693 50.9219 26.5312 50.3594 26.7812C49.8021 27.0312 49.1771 27.1562 48.4844 27.1562C47.8125 27.1562 47.1953 27.0312 46.6328 26.7812C46.0755 26.5312 45.5911 26.1693 45.1797 25.6953C44.7734 25.2214 44.4583 24.6458 44.2344 23.9688C44.0104 23.2917 43.8984 22.526 43.8984 21.6719V20.9531C43.8984 20.099 44.0078 19.3359 44.2266 18.6641C44.4505 17.987 44.7656 17.4115 45.1719 16.9375C45.5781 16.4583 46.0599 16.0938 46.6172 15.8438C47.1797 15.5938 47.7969 15.4688 48.4688 15.4688C49.1615 15.4688 49.7865 15.5938 50.3438 15.8438C50.9062 16.0938 51.388 16.4583 51.7891 16.9375C52.1953 17.4115 52.5052 17.987 52.7188 18.6641C52.9375 19.3359 53.0469 20.099 53.0469 20.9531ZM51.5547 21.6719V20.9375C51.5547 20.2604 51.4844 19.6615 51.3438 19.1406C51.2083 18.6198 51.0078 18.1823 50.7422 17.8281C50.4766 17.474 50.151 17.2057 49.7656 17.0234C49.3854 16.8411 48.9531 16.75 48.4688 16.75C48 16.75 47.5755 16.8411 47.1953 17.0234C46.8203 17.2057 46.4974 17.474 46.2266 17.8281C45.9609 18.1823 45.7552 18.6198 45.6094 19.1406C45.4635 19.6615 45.3906 20.2604 45.3906 20.9375V21.6719C45.3906 22.3542 45.4635 22.9583 45.6094 23.4844C45.7552 24.0052 45.9635 24.4453 46.2344 24.8047C46.5104 25.1589 46.8359 25.4271 47.2109 25.6094C47.5911 25.7917 48.0156 25.8828 48.4844 25.8828C48.974 25.8828 49.4089 25.7917 49.7891 25.6094C50.1693 25.4271 50.4896 25.1589 50.75 24.8047C51.0156 24.4453 51.2161 24.0052 51.3516 23.4844C51.487 22.9583 51.5547 22.3542 51.5547 21.6719ZM63.7109 21.3359V25.5C63.5703 25.7083 63.3464 25.9427 63.0391 26.2031C62.7318 26.4583 62.3073 26.6823 61.7656 26.875C61.2292 27.0625 60.5365 27.1562 59.6875 27.1562C58.9948 27.1562 58.3568 27.0365 57.7734 26.7969C57.1953 26.5521 56.6927 26.1979 56.2656 25.7344C55.8438 25.2656 55.5156 24.6979 55.2812 24.0312C55.0521 23.3594 54.9375 22.599 54.9375 21.75V20.8672C54.9375 20.0182 55.0365 19.2604 55.2344 18.5938C55.4375 17.9271 55.7344 17.362 56.125 16.8984C56.5156 16.4297 56.9948 16.0755 57.5625 15.8359C58.1302 15.5911 58.7812 15.4688 59.5156 15.4688C60.3854 15.4688 61.112 15.6198 61.6953 15.9219C62.2839 16.2188 62.7422 16.6302 63.0703 17.1562C63.4036 17.6823 63.6172 18.2812 63.7109 18.9531H62.2031C62.1354 18.5417 62 18.1667 61.7969 17.8281C61.599 17.4896 61.3151 17.2188 60.9453 17.0156C60.5755 16.8073 60.099 16.7031 59.5156 16.7031C58.9896 16.7031 58.5339 16.7995 58.1484 16.9922C57.763 17.1849 57.4453 17.4609 57.1953 17.8203C56.9453 18.1797 56.7578 18.6146 56.6328 19.125C56.513 19.6354 56.4531 20.2109 56.4531 20.8516V21.75C56.4531 22.4062 56.5286 22.9922 56.6797 23.5078C56.8359 24.0234 57.0573 24.4635 57.3438 24.8281C57.6302 25.1875 57.9714 25.4609 58.3672 25.6484C58.7682 25.8359 59.2109 25.9297 59.6953 25.9297C60.2318 25.9297 60.6667 25.8854 61 25.7969C61.3333 25.7031 61.5938 25.5938 61.7812 25.4688C61.9688 25.3385 62.112 25.2161 62.2109 25.1016V22.5547H59.5781V21.3359H63.7109ZM74.9688 20.9531V21.6719C74.9688 22.526 74.862 23.2917 74.6484 23.9688C74.4349 24.6458 74.1276 25.2214 73.7266 25.6953C73.3255 26.1693 72.8438 26.5312 72.2812 26.7812C71.724 27.0312 71.099 27.1562 70.4062 27.1562C69.7344 27.1562 69.1172 27.0312 68.5547 26.7812C67.9974 26.5312 67.513 26.1693 67.1016 25.6953C66.6953 25.2214 66.3802 24.6458 66.1562 23.9688C65.9323 23.2917 65.8203 22.526 65.8203 21.6719V20.9531C65.8203 20.099 65.9297 19.3359 66.1484 18.6641C66.3724 17.987 66.6875 17.4115 67.0938 16.9375C67.5 16.4583 67.9818 16.0938 68.5391 15.8438C69.1016 15.5938 69.7188 15.4688 70.3906 15.4688C71.0833 15.4688 71.7083 15.5938 72.2656 15.8438C72.8281 16.0938 73.3099 16.4583 73.7109 16.9375C74.1172 17.4115 74.4271 17.987 74.6406 18.6641C74.8594 19.3359 74.9688 20.099 74.9688 20.9531ZM73.4766 21.6719V20.9375C73.4766 20.2604 73.4062 19.6615 73.2656 19.1406C73.1302 18.6198 72.9297 18.1823 72.6641 17.8281C72.3984 17.474 72.0729 17.2057 71.6875 17.0234C71.3073 16.8411 70.875 16.75 70.3906 16.75C69.9219 16.75 69.4974 16.8411 69.1172 17.0234C68.7422 17.2057 68.4193 17.474 68.1484 17.8281C67.8828 18.1823 67.6771 18.6198 67.5312 19.1406C67.3854 19.6615 67.3125 20.2604 67.3125 20.9375V21.6719C67.3125 22.3542 67.3854 22.9583 67.5312 23.4844C67.6771 24.0052 67.8854 24.4453 68.1562 24.8047C68.4323 25.1589 68.7578 25.4271 69.1328 25.6094C69.513 25.7917 69.9375 25.8828 70.4062 25.8828C70.8958 25.8828 71.3307 25.7917 71.7109 25.6094C72.0911 25.4271 72.4115 25.1589 72.6719 24.8047C72.9375 24.4453 73.138 24.0052 73.2734 23.4844C73.4089 22.9583 73.4766 22.3542 73.4766 21.6719Z" fill="white"/>
<defs>
<filter id="filter0_d_701_2" x="2" y="0" width="36" height="41.3337" filterUnits="userSpaceOnUse" color-interpolation-filters="sRGB">
<feFlood flood-opacity="0" result="BackgroundImageFix"/>
<feColorMatrix in="SourceAlpha" type="matrix" values="0 0 0 0 0 0 0 0 0 0 0 0 0 0 0 0 0 0 127 0" result="hardAlpha"/>
<feOffset dy="1"/>
<feGaussianBlur stdDeviation="5"/>
<feComposite in2="hardAlpha" operator="out"/>
<feColorMatrix type="matrix" values="0 0 0 0 0.65 0 0 0 0 0.65 0 0 0 0 0.65 0 0 0 0.25 0"/>
<feBlend mode="normal" in2="BackgroundImageFix" result="effect1_dropShadow_701_2"/>
<feBlend mode="normal" in="SourceGraphic" in2="effect1_dropShadow_701_2" result="shape"/>
</filter>
</defs>
</svg>
