<svg width="64" height="64" viewBox="0 0 64 64" fill="none" xmlns="http://www.w3.org/2000/svg">
<circle cx="31.875" cy="31.875" r="31.875" fill="black" fill-opacity="0.5"/>
<path opacity="0.3" d="M32.5 34.375C33.5355 34.375 34.375 33.5355 34.375 32.5C34.375 31.4645 33.5355 30.625 32.5 30.625C31.4645 30.625 30.625 31.4645 30.625 32.5C30.625 33.5355 31.4645 34.375 32.5 34.375Z" fill="#EEEEEE"/>
<path d="M26.875 32.5C26.875 35.6125 29.3875 38.125 32.5 38.125C35.6125 38.125 38.125 35.6125 38.125 32.5C38.125 29.3875 35.6125 26.875 32.5 26.875C29.3875 26.875 26.875 29.3875 26.875 32.5ZM34.375 32.5C34.375 33.5312 33.5312 34.375 32.5 34.375C31.4688 34.375 30.625 33.5312 30.625 32.5C30.625 31.4688 31.4688 30.625 32.5 30.625C33.5312 30.625 34.375 31.4688 34.375 32.5Z" fill="#EEEEEE"/>
<path d="M25 25H19.5437C22.1312 20.5187 26.9687 17.5 32.5 17.5C39.475 17.5 45.3437 22.3 47.0125 28.75H50.875C49.1312 20.2 41.575 13.75 32.5 13.75C26.3687 13.75 20.9125 16.7125 17.5 21.2687V17.5H13.75V28.75H25V25ZM40 36.25V40H45.4562C42.8687 44.4812 38.0312 47.5 32.5 47.5C25.525 47.5 19.6562 42.7 17.9875 36.25H14.125C15.8687 44.8 23.425 51.25 32.5 51.25C38.6312 51.25 44.0875 48.2875 47.5 43.7312V47.5H51.25V36.25H40Z" fill="#EEEEEE"/>
</svg>
